<svg width="20.000000" height="20.000000" viewBox="0 0 20 20" fill="none" xmlns="http://www.w3.org/2000/svg" xmlns:xlink="http://www.w3.org/1999/xlink">
	<desc>
			Created with Pixso.
	</desc>
	<defs/>
	<path id="Shape" d="M1 0L8 0C8.6001 0 9 0.399994 9 1L9 8C9 8.60001 8.6001 9 8 9L1 9C0.399902 9 0 8.60001 0 8L0 1C0 0.399994 0.399902 0 1 0ZM19 0L12 0C11.3999 0 11 0.399994 11 1L11 8C11 8.60001 11.3999 9 12 9L19 9C19.6001 9 20 8.60001 20 8L20 1C20 0.399994 19.6001 0 19 0ZM1 11L8 11C8.6001 11 9 11.4 9 12L9 19C9 19.6 8.6001 20 8 20L1 20C0.399902 20 0 19.6 0 19L0 12C0 11.4 0.399902 11 1 11ZM12 11L19 11C19.6001 11 20 11.4 20 12L20 19C20 19.6 19.6001 20 19 20L12 20C11.3999 20 11 19.6 11 19L11 12C11 11.4 11.3999 11 12 11Z" clip-rule="evenodd" fill="#FFFFFF" fill-opacity="1.000000" fill-rule="evenodd"/>
</svg>
