<svg width="12.000000" height="12.000000" viewBox="0 0 12 12" fill="none" xmlns="http://www.w3.org/2000/svg" xmlns:xlink="http://www.w3.org/1999/xlink">
	<desc>
			Created with Pixso.
	</desc>
	<defs/>
	<g opacity="0.750000">
		<path id="Shape" d="M1.82666 0L10.1733 0C10.6577 0 11.1223 0.192459 11.4651 0.535019C11.8076 0.877579 12 1.34221 12 1.82666L12 10.1733C12 10.6578 11.8076 11.1224 11.4651 11.465C11.1223 11.8076 10.6577 12 10.1733 12L1.82666 12C0.817871 12 0 11.1822 0 10.1733L0 1.82666C0 0.817825 0.817871 0 1.82666 0ZM2.3999 5.39999L1.19995 5.39999L1.19995 4.2L2.3999 4.2L2.3999 5.39999ZM1.19995 6.60001L2.3999 6.60001L2.3999 7.8L1.19995 7.8L1.19995 6.60001ZM10.8 5.39999L9.6001 5.39999L9.6001 4.2L10.8 4.2L10.8 5.39999ZM9.6001 6.60001L10.8 6.60001L10.8 7.8L9.6001 7.8L9.6001 6.60001ZM10.8 1.644L10.8 2.39999L9.6001 2.39999L9.6001 1.2L10.356 1.2C10.4739 1.2 10.5867 1.24678 10.6699 1.33005C10.7532 1.41331 10.8 1.52625 10.8 1.644ZM1.64404 1.2L2.3999 1.2L2.3999 2.39999L1.19995 2.39999L1.19995 1.644C1.19995 1.52625 1.24683 1.41331 1.33008 1.33005C1.41333 1.24678 1.52612 1.2 1.64404 1.2L1.64404 1.2ZM1.19995 10.356L1.19995 9.60001L2.3999 9.60001L2.3999 10.8L1.64404 10.8C1.52612 10.8 1.41333 10.7532 1.33008 10.67C1.24683 10.5867 1.19995 10.4738 1.19995 10.356L1.19995 10.356ZM10.8 10.356C10.8 10.6012 10.6013 10.8 10.356 10.8L9.6001 10.8L9.6001 9.60001L10.8 9.60001L10.8 10.356Z" clip-rule="evenodd" fill="#FFFFFF" fill-opacity="1.000000" fill-rule="evenodd"/>
	</g>
</svg>
