<svg width="11.666748" height="14.000000" viewBox="0 0 11.6667 14" fill="none" xmlns="http://www.w3.org/2000/svg" xmlns:xlink="http://www.w3.org/1999/xlink">
	<desc>
			Created with Pixso.
	</desc>
	<defs/>
	<path id="Path" d="M11.0105 0.0832825C10.8828 0.027771 10.749 0 10.6094 0L1.05737 0Q0.947021 0 0.841797 0.0230103L0.841797 0.0230408Q0.74707 0.0437927 0.65625 0.0832825Q0.47876 0.154297 0.343994 0.273712Q0.250488 0.356537 0.177734 0.462646Q0.0895996 0.591217 0.045166 0.733459Q0 0.877869 0 1.03635L0 12.9637C0 13.1734 0.0593262 13.3646 0.177734 13.5374C0.296143 13.7101 0.455811 13.8365 0.65625 13.9167Q0.74707 13.9562 0.841797 13.977Q0.947021 14 1.05737 14Q1.23535 14 1.39624 13.9472Q1.62207 13.873 1.81372 13.6946L5.83325 9.7713L9.85278 13.6946C10.0654 13.8921 10.3176 13.9908 10.6094 13.9908C10.7612 13.9908 10.895 13.9661 11.0105 13.9167C11.2109 13.8365 11.3704 13.7101 11.489 13.5374C11.6074 13.3646 11.6667 13.1734 11.6667 12.9637L11.6667 1.03635Q11.6667 0.877869 11.6216 0.733459Q11.5771 0.591217 11.489 0.462646C11.3704 0.289917 11.2109 0.163483 11.0105 0.0832825ZM10.1667 11.9048L10.1667 1.5L1.5 1.5L1.5 11.9048L5.83325 7.67523L10.1667 11.9048Z" fill="#FFFFFF" fill-opacity="1.000000" fill-rule="evenodd"/>
</svg>
