<svg width="24.007812" height="24.007721" viewBox="0 0 24.0078 24.0077" fill="none" xmlns="http://www.w3.org/2000/svg" xmlns:xlink="http://www.w3.org/1999/xlink">
	<desc>
			Created with Pixso.
	</desc>
	<defs/>
	<path id="Shape" d="M23.6133 21.72L19.0801 17.2C20.5427 15.3366 21.3362 13.0356 21.3333 10.6667C21.3333 4.77563 16.5576 0 10.6667 0C4.77563 0 0 4.77563 0 10.6667C0 16.5577 4.77563 21.3333 10.6667 21.3333C13.0356 21.3363 15.3367 20.5426 17.2 19.08L21.72 23.6133C21.9705 23.8658 22.311 24.0077 22.6667 24.0077C23.0222 24.0077 23.363 23.8658 23.6133 23.6133C23.8657 23.363 24.0078 23.0222 24.0078 22.6667C24.0078 22.3112 23.8657 21.9704 23.6133 21.72ZM10.6667 2.66666C6.24829 2.66666 2.66675 6.24838 2.66675 10.6667C2.66675 15.0849 6.24829 18.6667 10.6667 18.6667C15.085 18.6667 18.6667 15.0849 18.6667 10.6667C18.6667 6.24838 15.085 2.66666 10.6667 2.66666Z" clip-rule="evenodd" fill="#FFFFFF" fill-opacity="1.000000" fill-rule="evenodd"/>
</svg>
