<svg width="20.000000" height="20.000000" viewBox="0 0 20 20" fill="none" xmlns="http://www.w3.org/2000/svg" xmlns:xlink="http://www.w3.org/1999/xlink">
	<desc>
			Created with Pixso.
	</desc>
	<defs/>
	<path id="Shape" d="M16.9551 0C17.7627 0 18.5371 0.32074 19.1084 0.891693C19.6797 1.46265 20 2.237 20 3.04443L20 16.9556C20 17.763 19.6797 18.5374 19.1084 19.1083C18.5371 19.6793 17.7627 20 16.9551 20L3.04492 20C1.36328 20 0 18.637 0 16.9556L0 3.04443C0 1.36304 1.36328 0 3.04492 0L16.9551 0ZM4 9L2 9L2 7L4 7L4 9ZM2 11L4 11L4 13L2 13L2 11ZM18 9L16 9L16 7L18 7L18 9ZM16 11L18 11L18 13L16 13L16 11ZM18 2.73999L18 4L16 4L16 2L17.2598 2C17.4561 2 17.6445 2.07797 17.7832 2.21674C17.9219 2.35553 18 2.54373 18 2.73999ZM2.74023 2L4 2L4 4L2 4L2 2.73999C2 2.54373 2.07812 2.35553 2.2168 2.21674C2.35547 2.07797 2.54395 2 2.74023 2ZM2 17.26L2 16L4 16L4 18L2.74023 18C2.54395 18 2.35547 17.922 2.2168 17.7833C2.07812 17.6445 2 17.4563 2 17.26ZM18 17.26C18 17.6687 17.6689 18 17.2598 18L16 18L16 16L18 16L18 17.26Z" clip-rule="evenodd" fill="#FFFFFF" fill-opacity="1.000000" fill-rule="evenodd"/>
</svg>
