<svg width="11.666992" height="14.000000" viewBox="0 0 11.667 14" fill="none" xmlns="http://www.w3.org/2000/svg" xmlns:xlink="http://www.w3.org/1999/xlink">
	<desc>
			Created with Pixso.
	</desc>
	<defs/>
	<path id="Path" d="M10.6094 0C10.749 0 10.8828 0.027771 11.0107 0.0832825C11.2109 0.163483 11.3701 0.289917 11.4893 0.462646C11.6074 0.635376 11.667 0.826599 11.667 1.03635L11.667 12.9637C11.667 13.1734 11.6074 13.3646 11.4893 13.5374C11.3701 13.7101 11.2109 13.8365 11.0107 13.9167C10.8945 13.9661 10.7617 13.9908 10.6094 13.9908C10.3174 13.9908 10.0654 13.8921 9.85254 13.6946L5.83301 9.7713L1.81348 13.6946C1.59473 13.8982 1.34277 14 1.05762 14C0.917969 14 0.78418 13.9722 0.65625 13.9167C0.456055 13.8365 0.295898 13.7101 0.177734 13.5374C0.0595703 13.3646 0 13.1734 0 12.9637L0 1.03635C0 0.826599 0.0595703 0.635376 0.177734 0.462646C0.295898 0.289917 0.456055 0.163483 0.65625 0.0832825C0.78418 0.027771 0.917969 0 1.05762 0L10.6094 0Z" fill="#FFFFFF" fill-opacity="1.000000" fill-rule="nonzero"/>
</svg>
